<?xml version="1.0" encoding="iso-8859-1"?>
<!-- Generator: Adobe Illustrator 18.0.0, SVG Export Plug-In . SVG Version: 6.00 Build 0)  -->
<!DOCTYPE svg PUBLIC "-//W3C//DTD SVG 1.1//EN" "http://www.w3.org/Graphics/SVG/1.1/DTD/svg11.dtd">
<svg version="1.1" id="Capa_1" xmlns="http://www.w3.org/2000/svg" xmlns:xlink="http://www.w3.org/1999/xlink" x="0px" y="0px"
	 viewBox="0 0 411.009 411.009" style="enable-background:new 0 0 411.009 411.009;" xml:space="preserve">
<path d="M406.511,186.718c2.02,0,3.857-1.37,4.364-3.42c0.598-2.412-0.874-4.852-3.287-5.449l-29.779-7.373l-10.864-10.853
	c1.326-2.389,2.041-5.082,2.041-7.889c0-4.354-1.696-8.446-4.777-11.525c-3.08-3.076-7.174-4.77-11.529-4.77
	c-2.811,0-5.51,0.716-7.9,2.044l-18.971-18.951c1.861-2.725,3.131-5.787,3.741-9.029l40.775,0.002l21.703,13.066
	c0.727,0.438,1.526,0.646,2.317,0.646c1.526,0,3.015-0.777,3.859-2.18c1.281-2.13,0.595-4.895-1.534-6.177l-16.369-9.855
	l16.369-9.854c2.129-1.282,2.815-4.047,1.534-6.177c-1.281-2.127-4.046-2.815-6.177-1.534l-21.702,13.064l-40.776-0.002
	c-0.61-3.242-1.879-6.304-3.741-9.027l18.971-18.951c2.392,1.328,5.09,2.044,7.901,2.044c4.354,0,8.449-1.694,11.528-4.771
	c3.083-3.078,4.78-7.171,4.78-11.523c0-2.809-0.716-5.503-2.044-7.893l10.861-10.85l29.782-7.374
	c2.413-0.598,3.885-3.037,3.287-5.449c-0.598-2.414-3.044-3.881-5.449-3.287l-23.749,5.88l5.887-23.713
	c0.599-2.412-0.871-4.852-3.283-5.451c-2.411-0.602-4.853,0.871-5.451,3.283l-7.384,29.743l-10.867,10.855
	c-2.392-1.327-5.089-2.043-7.9-2.043c-4.355,0-8.45,1.694-11.528,4.77c-3.082,3.077-4.78,7.169-4.78,11.522
	c0,2.809,0.716,5.504,2.044,7.893l-18.973,18.953c-2.729-1.863-5.797-3.133-9.045-3.744V40.653l13.08-21.682
	c1.283-2.128,0.599-4.893-1.529-6.178c-2.125-1.281-4.893-0.6-6.178,1.529l-9.872,16.364l-9.875-16.363
	c-1.283-2.128-4.05-2.811-6.178-1.527c-2.128,1.284-2.811,4.05-1.527,6.178l13.079,21.673v40.724
	c-3.248,0.61-6.315,1.88-9.043,3.743l-18.974-18.952c1.328-2.388,2.043-5.081,2.043-7.888c0-4.354-1.697-8.449-4.779-11.527
	c-3.079-3.076-7.174-4.771-11.529-4.771c-2.811,0-5.509,0.716-7.899,2.043l-10.87-10.855l-7.38-29.745
	c-0.599-2.412-3.04-3.887-5.451-3.283c-2.412,0.598-3.882,3.039-3.283,5.451l5.884,23.714l-22.495-5.571
	c-0.649-0.303-3.585-0.304-4.241,0.006l-22.482,5.566l5.884-23.713c0.599-2.412-0.872-4.854-3.284-5.451
	c-2.409-0.602-4.853,0.872-5.451,3.283l-7.38,29.744l-10.868,10.854c-2.391-1.327-5.089-2.043-7.9-2.043
	c-4.355,0-8.45,1.694-11.53,4.771c-3.081,3.077-4.778,7.169-4.778,11.521c-0.001,2.809,0.715,5.504,2.043,7.894l-18.973,18.952
	c-2.729-1.863-5.796-3.133-9.044-3.743l-0.001-40.719l13.08-21.681c1.284-2.128,0.6-4.893-1.528-6.178
	c-2.127-1.283-4.894-0.6-6.178,1.529l-9.873,16.364L95.24,14.324c-1.284-2.128-4.05-2.813-6.178-1.527
	c-2.128,1.283-2.812,4.05-1.528,6.178l13.079,21.674l0.001,40.723c-3.248,0.61-6.316,1.88-9.045,3.743L72.596,66.162
	c1.328-2.388,2.042-5.081,2.043-7.889c0-4.354-1.697-8.447-4.779-11.526c-3.08-3.076-7.174-4.771-11.529-4.771
	c-2.811,0-5.508,0.715-7.899,2.042L39.562,33.164L32.181,3.418c-0.599-2.412-3.034-3.884-5.452-3.283
	c-2.412,0.599-3.882,3.039-3.284,5.451L29.33,29.3L5.583,23.419c-2.411-0.598-4.852,0.874-5.45,3.286
	c-0.597,2.413,0.874,4.853,3.287,5.45l29.78,7.375l10.864,10.85c-1.328,2.389-2.043,5.084-2.043,7.893
	c0,4.353,1.697,8.445,4.777,11.522c3.081,3.077,7.176,4.772,11.531,4.772c2.812,0,5.509-0.716,7.901-2.044l18.972,18.951
	c-1.862,2.724-3.132,5.786-3.743,9.027l-40.776,0.002L18.981,87.438c-2.131-1.284-4.895-0.595-6.176,1.534
	c-1.282,2.129-0.595,4.895,1.534,6.177l16.37,9.855L14.34,114.86c-2.129,1.282-2.816,4.048-1.534,6.177
	c0.844,1.402,2.333,2.18,3.859,2.18c0.79,0,1.59-0.209,2.317-0.646l21.702-13.066l40.774-0.002c0.611,3.242,1.881,6.305,3.744,9.029
	l-18.972,18.95c-2.391-1.327-5.089-2.043-7.9-2.043c-4.355,0-8.45,1.694-11.529,4.769c-3.082,3.078-4.779,7.171-4.78,11.525
	c0,2.808,0.715,5.503,2.042,7.891L33.2,170.476l-29.78,7.373c-2.413,0.598-3.884,3.037-3.287,5.449
	c0.507,2.05,2.344,3.42,4.365,3.42c0.358,0,0.722-0.043,1.085-0.133l23.747-5.88l-5.885,23.717c-0.267,1.084-0.015,2.108,0,2.168
	l5.884,23.713l-23.747-5.88c-2.414-0.598-4.853,0.874-5.45,3.287c-0.597,2.412,0.874,4.852,3.287,5.449l29.781,7.374l10.864,10.85
	c-1.329,2.39-2.044,5.085-2.044,7.893c0,4.353,1.697,8.445,4.777,11.522c3.081,3.077,7.176,4.772,11.531,4.772
	c2.812,0,5.51-0.716,7.902-2.044l18.97,18.95c-1.863,2.725-3.132,5.787-3.744,9.029l-40.775,0.002l-21.702-13.066
	c-2.131-1.284-4.895-0.595-6.176,1.534c-1.282,2.129-0.595,4.895,1.534,6.177l16.369,9.855l-16.368,9.853
	c-2.129,1.282-2.816,4.047-1.535,6.177c0.845,1.402,2.333,2.18,3.86,2.18c0.79,0,1.59-0.208,2.316-0.646l21.702-13.064l40.774-0.002
	c0.611,3.242,1.881,6.305,3.744,9.029L66.23,338.485c-2.391-1.328-5.089-2.043-7.901-2.043c-4.355,0-8.451,1.694-11.529,4.771
	c-3.082,3.077-4.779,7.169-4.78,11.522c-0.001,2.809,0.715,5.504,2.043,7.894L33.2,371.48l-29.78,7.373
	c-2.413,0.598-3.884,3.037-3.287,5.449c0.507,2.05,2.344,3.42,4.365,3.42c0.358,0,0.722-0.043,1.085-0.133l23.747-5.88
	l-5.885,23.715c-0.599,2.412,0.872,4.853,3.284,5.451c0.364,0.091,0.729,0.134,1.087,0.134c2.02,0,3.856-1.369,4.364-3.417
	l7.382-29.748L50.43,366.99c2.392,1.328,5.09,2.044,7.901,2.044c4.355,0,8.45-1.694,11.531-4.771
	c3.081-3.078,4.778-7.171,4.777-11.525c-0.001-2.808-0.715-5.502-2.043-7.89l18.972-18.95c2.729,1.863,5.796,3.133,9.044,3.743
	l0.001,40.723l-13.08,21.674c-1.284,2.128-0.6,4.893,1.528,6.178c0.727,0.44,1.529,0.648,2.321,0.648
	c1.525,0,3.012-0.775,3.857-2.176l9.873-16.36l9.872,16.36c0.845,1.4,2.333,2.176,3.858,2.176c0.791,0,1.593-0.209,2.32-0.648
	c2.128-1.283,2.812-4.05,1.528-6.178l-13.078-21.674l-0.001-40.722c3.248-0.611,6.317-1.881,9.046-3.744l18.972,18.95
	c-1.328,2.388-2.042,5.082-2.043,7.89c-0.001,4.355,1.696,8.447,4.777,11.525c3.08,3.077,7.175,4.771,11.531,4.771
	c2.812,0,5.51-0.716,7.901-2.044l10.87,10.856l7.378,29.745c0.508,2.049,2.345,3.418,4.364,3.418c0.358,0,0.723-0.043,1.087-0.134
	c2.412-0.598,3.882-3.038,3.284-5.45l-5.882-23.716l22.446,5.558c0.597,0.287,3.727,0.287,4.325,0l22.446-5.558l-5.884,23.715
	c-0.599,2.412,0.871,4.854,3.283,5.451c0.364,0.091,0.729,0.134,1.088,0.134c2.019,0,3.855-1.369,4.363-3.417l7.381-29.746
	l10.867-10.855c2.392,1.328,5.09,2.043,7.901,2.043c4.357,0,8.451-1.694,11.533-4.771c3.081-3.078,4.776-7.172,4.776-11.526
	c-0.001-2.808-0.716-5.501-2.044-7.889l18.972-18.95c2.728,1.863,5.797,3.133,9.045,3.743v40.724l-13.079,21.673
	c-1.284,2.128-0.601,4.893,1.527,6.178c0.728,0.44,1.529,0.648,2.321,0.648c1.524,0,3.012-0.775,3.856-2.176l9.874-16.361
	l9.872,16.361c0.845,1.4,2.332,2.176,3.857,2.176c0.792,0,1.594-0.209,2.321-0.648c2.128-1.283,2.811-4.05,1.527-6.178
	l-13.077-21.673V329.64c3.248-0.61,6.316-1.88,9.045-3.743l18.972,18.95c-1.327,2.388-2.043,5.082-2.043,7.89
	c-0.001,4.355,1.696,8.448,4.777,11.525c3.08,3.077,7.175,4.771,11.531,4.771c2.812,0,5.51-0.715,7.901-2.043l10.868,10.856
	l7.382,29.745c0.508,2.048,2.345,3.417,4.363,3.417c0.359,0,0.724-0.043,1.088-0.134c2.412-0.599,3.882-3.039,3.283-5.451
	l-5.885-23.715l23.747,5.88c0.363,0.09,0.727,0.133,1.085,0.133c2.02,0,3.857-1.37,4.364-3.42c0.598-2.412-0.874-4.852-3.287-5.449
	l-29.779-7.373l-10.864-10.852c1.326-2.389,2.041-5.083,2.041-7.891c0-4.353-1.696-8.445-4.776-11.523
	c-3.08-3.077-7.175-4.771-11.53-4.771c-2.811,0-5.509,0.715-7.9,2.043l-18.971-18.95c1.861-2.724,3.131-5.786,3.741-9.028
	l40.775,0.002l21.703,13.066c0.727,0.438,1.526,0.645,2.317,0.645c1.526,0,3.015-0.777,3.859-2.18
	c1.281-2.13,0.595-4.895-1.534-6.177l-16.37-9.855l16.37-9.855c2.129-1.282,2.815-4.047,1.534-6.177
	c-1.281-2.128-4.046-2.813-6.177-1.534l-21.703,13.066l-40.774-0.002c-0.61-3.242-1.88-6.305-3.742-9.029l18.972-18.95
	c2.391,1.328,5.088,2.044,7.899,2.044c4.354,0,8.449-1.694,11.529-4.771c3.082-3.077,4.78-7.17,4.78-11.523
	c0-2.808-0.716-5.503-2.044-7.892l10.861-10.85l29.782-7.374c2.413-0.598,3.885-3.037,3.287-5.449
	c-0.598-2.413-3.044-3.882-5.449-3.287l-23.749,5.88l5.887-23.715c0.287-1.088,0.015-2.108,0-2.168l-5.886-23.717l23.748,5.88
	C405.789,186.675,406.153,186.718,406.511,186.718z M371.446,234.167l-10.867,10.855c-2.391-1.328-5.089-2.043-7.9-2.043
	c-4.356,0-8.451,1.694-11.528,4.771c-3.082,3.077-4.78,7.17-4.78,11.524c0,2.809,0.716,5.503,2.044,7.891l-18.973,18.951
	c-2.729-1.863-5.797-3.133-9.045-3.744v-40.715l13.08-21.682c1.283-2.128,0.599-4.894-1.529-6.178
	c-2.125-1.282-4.893-0.6-6.178,1.529l-9.872,16.364l-9.875-16.363c-1.283-2.128-4.05-2.813-6.178-1.527
	c-2.128,1.284-2.811,4.05-1.527,6.178l13.079,21.673v40.722c-3.248,0.61-6.315,1.88-9.043,3.743l-18.973-18.951
	c1.327-2.388,2.042-5.08,2.042-7.887c0-4.355-1.697-8.449-4.778-11.526c-3.079-3.078-7.175-4.772-11.53-4.772
	c-2.811,0-5.51,0.715-7.9,2.043l-10.869-10.855l-7.111-28.66l7.112-28.664l10.867-10.855c2.392,1.328,5.09,2.044,7.901,2.044
	c4.357,0,8.451-1.695,11.533-4.772c3.08-3.078,4.776-7.17,4.776-11.523c-0.001-2.809-0.716-5.503-2.044-7.891l18.971-18.951
	c2.729,1.864,5.798,3.135,9.046,3.745v40.722l-13.079,21.673c-1.284,2.128-0.601,4.893,1.527,6.178
	c0.728,0.439,1.529,0.648,2.321,0.648c1.524,0,3.012-0.775,3.856-2.176l9.873-16.361l9.872,16.362
	c0.846,1.401,2.333,2.177,3.857,2.177c0.792,0,1.594-0.209,2.32-0.647c2.129-1.284,2.813-4.05,1.529-6.178l-13.078-21.677v-40.721
	c3.248-0.61,6.316-1.881,9.046-3.744l18.971,18.951c-1.328,2.389-2.044,5.084-2.043,7.893c0,4.354,1.697,8.445,4.777,11.521
	c3.08,3.077,7.175,4.772,11.531,4.772c2.812,0,5.51-0.716,7.901-2.044l10.868,10.856l7.112,28.663L371.446,234.167z
	 M316.556,316.654c-0.001,0.001-0.001,0.001-0.002,0.003c-2.848,2.841-6.633,4.405-10.658,4.405c-4.025,0-7.811-1.564-10.658-4.405
	c-0.001-0.002-0.001-0.002-0.002-0.003c-0.002-0.001-0.003-0.003-0.005-0.004c-2.841-2.839-4.406-6.611-4.411-10.623
	c0-0.007,0.002-0.014,0.002-0.021c0-0.006-0.002-0.013-0.002-0.02c0.006-4.013,1.571-7.785,4.415-10.625
	c2.848-2.845,6.634-4.411,10.661-4.411c4.028,0,7.815,1.566,10.663,4.411c2.847,2.843,4.413,6.623,4.413,10.645
	c0,4.02-1.567,7.8-4.411,10.644C316.559,316.651,316.558,316.653,316.556,316.654z M259.113,336.442
	c-4.355,0-8.45,1.694-11.529,4.771c-3.081,3.077-4.778,7.169-4.779,11.522c0,2.809,0.715,5.503,2.043,7.893l-10.864,10.852
	l-28.478,7.051l-28.479-7.052l-10.865-10.852c1.328-2.389,2.043-5.084,2.043-7.893c-0.001-4.353-1.697-8.444-4.778-11.522
	c-3.08-3.077-7.175-4.771-11.53-4.771c-2.812,0-5.51,0.715-7.9,2.043l-18.971-18.949c1.863-2.725,3.132-5.787,3.743-9.029
	l40.776,0.002l21.701,13.066c0.727,0.438,1.527,0.645,2.317,0.645c1.526,0,3.015-0.777,3.859-2.18
	c1.282-2.129,0.595-4.895-1.534-6.177l-16.369-9.855l16.367-9.855c2.129-1.282,2.816-4.048,1.534-6.177
	c-1.281-2.13-4.046-2.813-6.176-1.534l-21.699,13.066l-40.776-0.002c-0.611-3.242-1.88-6.305-3.743-9.029l18.972-18.95
	c2.391,1.328,5.089,2.044,7.9,2.044c4.354,0,8.449-1.694,11.528-4.771c3.083-3.077,4.78-7.169,4.781-11.522
	c0.001-2.809-0.715-5.504-2.043-7.894l10.863-10.849l28.483-7.053l28.476,7.051l10.864,10.85c-1.328,2.389-2.044,5.084-2.044,7.892
	c0,4.353,1.697,8.447,4.778,11.524c3.08,3.077,7.175,4.772,11.53,4.772c2.812,0,5.51-0.716,7.901-2.044l18.972,18.95
	c-1.863,2.725-3.133,5.787-3.744,9.029l-40.774,0.002l-21.701-13.066c-2.126-1.281-4.895-0.595-6.177,1.534
	c-1.281,2.129-0.595,4.895,1.534,6.177l16.368,9.855l-16.368,9.853c-2.129,1.282-2.815,4.047-1.534,6.177
	c0.845,1.402,2.333,2.18,3.859,2.18c0.79,0,1.591-0.209,2.317-0.646l21.701-13.064l40.774-0.002c0.61,3.242,1.88,6.305,3.742,9.029
	l-18.971,18.949C264.621,337.157,261.924,336.442,259.113,336.442z M105.113,321.062c-4.028,0-7.815-1.566-10.663-4.411
	c-2.841-2.838-4.407-6.607-4.413-10.618c0-0.009,0.002-0.018,0.002-0.026c0-0.009-0.002-0.018-0.002-0.018
	c0.007-4.02,1.572-7.789,4.413-10.627c0,0,0.001-0.001,0.001-0.002c0.001,0,0.002,0,0.002,0l0.001-0.002
	c2.847-2.842,6.632-4.407,10.658-4.407c4.028,0,7.815,1.566,10.663,4.411c2.847,2.844,4.414,6.624,4.414,10.645
	c0.001,4.021-1.567,7.801-4.414,10.645C112.928,319.496,109.141,321.062,105.113,321.062z M69.861,247.751
	c-3.08-3.078-7.175-4.772-11.53-4.772c-2.812,0-5.509,0.715-7.9,2.043l-10.868-10.855l-7.112-28.66l7.113-28.666l10.866-10.854
	c2.392,1.328,5.09,2.044,7.901,2.044c4.355,0,8.45-1.695,11.531-4.772c3.081-3.077,4.777-7.17,4.777-11.523
	c0-2.808-0.715-5.503-2.043-7.892l18.972-18.951c2.729,1.864,5.796,3.135,9.045,3.745l0.001,40.721l-13.08,21.674
	c-1.284,2.128-0.6,4.893,1.528,6.178c0.727,0.439,1.529,0.648,2.321,0.648c1.525,0,3.012-0.775,3.857-2.176l9.874-16.361
	l9.871,16.362c0.845,1.401,2.333,2.177,3.858,2.177c0.791,0,1.593-0.209,2.32-0.647c2.128-1.284,2.812-4.05,1.528-6.178
	l-13.078-21.676l-0.001-40.722c3.249-0.61,6.317-1.881,9.046-3.745l18.971,18.952c-1.328,2.389-2.043,5.084-2.042,7.893
	c0,4.354,1.697,8.445,4.777,11.521c3.08,3.077,7.175,4.772,11.531,4.772c2.812,0,5.51-0.716,7.901-2.044l10.869,10.855l7.109,28.663
	l-7.111,28.663l-10.867,10.855c-2.391-1.328-5.089-2.044-7.901-2.044c-4.356,0-8.451,1.694-11.53,4.771
	c-3.081,3.077-4.778,7.17-4.778,11.523c0,2.808,0.715,5.502,2.043,7.891l-18.973,18.951c-2.729-1.863-5.797-3.133-9.045-3.743
	l-0.001-40.717l13.08-21.681c1.284-2.128,0.6-4.894-1.528-6.178c-2.127-1.282-4.894-0.6-6.178,1.529l-9.873,16.364l-9.874-16.363
	c-1.284-2.128-4.05-2.813-6.178-1.527c-2.128,1.283-2.812,4.05-1.528,6.178l13.079,21.674l0.001,40.721
	c-3.248,0.61-6.316,1.88-9.045,3.743l-18.971-18.951c1.327-2.388,2.041-5.081,2.042-7.888
	C74.639,254.922,72.942,250.829,69.861,247.751z M94.454,94.357L94.454,94.357c2.848-2.843,6.633-4.408,10.659-4.408
	c4.028,0,7.815,1.566,10.664,4.412c2.846,2.842,4.414,6.621,4.414,10.641c0.001,4.021-1.567,7.802-4.414,10.646
	c-2.846,2.844-6.63,4.411-10.656,4.413c-0.002,0-0.004-0.001-0.007-0.001c-0.002,0-0.004,0-0.006,0
	c-4.025-0.001-7.809-1.568-10.655-4.412c-2.841-2.838-4.407-6.607-4.413-10.617c0-0.01,0.002-0.017,0.002-0.027
	c0-0.009-0.002-0.017-0.002-0.025c0.007-4.01,1.572-7.78,4.413-10.617l0.001-0.002C94.452,94.358,94.453,94.358,94.454,94.357z
	 M151.897,74.568c4.354,0,8.448-1.694,11.528-4.771c3.082-3.078,4.779-7.17,4.78-11.522c0.001-2.809-0.715-5.504-2.044-7.894
	l10.863-10.85l28.483-7.053l28.476,7.052l10.863,10.85c-1.328,2.389-2.043,5.083-2.043,7.891c0,4.354,1.697,8.446,4.778,11.524
	c3.08,3.077,7.175,4.772,11.53,4.772c2.812,0,5.51-0.716,7.9-2.044l18.973,18.951c-1.863,2.724-3.133,5.786-3.744,9.027
	l-40.774,0.002l-21.701-13.066c-2.126-1.281-4.895-0.595-6.177,1.534c-1.281,2.129-0.595,4.895,1.534,6.177l16.368,9.855
	l-16.368,9.855c-2.129,1.282-2.815,4.048-1.534,6.177c0.845,1.402,2.333,2.18,3.859,2.18c0.791,0,1.591-0.209,2.317-0.646
	l21.701-13.066l40.773-0.002c0.611,3.242,1.88,6.305,3.743,9.029l-18.972,18.95c-2.391-1.327-5.088-2.043-7.899-2.043
	c-4.355,0-8.449,1.694-11.529,4.77c-3.082,3.077-4.779,7.17-4.779,11.524c0,2.808,0.715,5.502,2.042,7.89l-10.863,10.853
	l-28.478,7.051l-28.479-7.052l-10.865-10.852c1.327-2.387,2.042-5.08,2.042-7.887c0-4.355-1.696-8.448-4.778-11.527
	c-3.08-3.076-7.175-4.77-11.53-4.77c-2.812,0-5.509,0.716-7.901,2.044l-18.971-18.951c1.863-2.725,3.133-5.787,3.744-9.029
	l40.776,0.002l21.701,13.066c0.727,0.438,1.527,0.646,2.317,0.646c1.526,0,3.015-0.777,3.859-2.18
	c1.282-2.129,0.595-4.895-1.534-6.177l-16.368-9.855l16.366-9.854c2.129-1.282,2.816-4.048,1.534-6.177
	c-1.281-2.127-4.045-2.813-6.176-1.534l-21.699,13.064l-40.776-0.002c-0.611-3.242-1.88-6.305-3.743-9.027l18.972-18.951
	C146.388,73.852,149.086,74.568,151.897,74.568z M305.896,89.949c4.025,0,7.811,1.564,10.658,4.405
	c0.001,0.002,0.001,0.002,0.002,0.003c0.002,0.001,0.003,0.003,0.005,0.004c2.844,2.842,4.411,6.62,4.411,10.639
	c0.001,4.022-1.566,7.804-4.413,10.647c-2.847,2.844-6.631,4.411-10.656,4.413c-0.003,0-0.005-0.001-0.007-0.001
	c-0.002,0-0.004,0.001-0.007,0.001c-4.022-0.002-7.805-1.567-10.651-4.407c-0.001-0.002-0.001-0.002-0.002-0.003
	c-0.002-0.001-0.003-0.003-0.005-0.004c-2.841-2.839-4.406-6.61-4.411-10.623c0-0.007,0.002-0.014,0.002-0.014
	c0-0.013-0.002-0.018-0.002-0.018c0.006-4.02,1.571-7.791,4.415-10.631C298.082,91.515,301.868,89.949,305.896,89.949z
	 M266.423,151.736c0,1.947-0.76,3.778-2.137,5.155c-1.382,1.379-3.219,2.14-5.173,2.14c-1.95,0-3.784-0.758-5.165-2.134
	c-0.001-0.002-0.001-0.002-0.002-0.003c-0.002-0.001-0.003-0.003-0.005-0.004c-1.378-1.378-2.138-3.208-2.138-5.156
	c0-1.948,0.76-3.779,2.139-5.157c1.381-1.378,3.217-2.138,5.17-2.138c1.95,0,3.784,0.758,5.164,2.132
	c0.001,0.002,0.001,0.002,0.002,0.003c0.002,0.001,0.003,0.003,0.005,0.004C265.662,147.956,266.422,149.788,266.423,151.736z
	 M224.23,204.422c-0.254,1.084-0.015,2.108,0,2.168l5.884,23.713l-22.497-5.57c-0.648-0.303-3.586-0.304-4.243,0.006l-22.479,5.566
	l5.884-23.715c0.247-0.883,0.015-2.107,0-2.167l-5.883-23.718l22.446,5.558c0.597,0.287,3.727,0.287,4.325,0l22.447-5.558
	L224.23,204.422z M146.721,146.583c0.003-0.003,0.007-0.005,0.01-0.008c0.003-0.003,0.004-0.006,0.007-0.008
	c1.379-1.373,3.21-2.129,5.159-2.129c1.953,0,3.789,0.76,5.169,2.138s2.139,3.21,2.139,5.159c0,1.947-0.76,3.777-2.139,5.155
	c-1.38,1.38-3.216,2.14-5.169,2.14c-1.954,0-3.79-0.76-5.171-2.141c-1.378-1.376-2.137-3.206-2.137-5.153
	C144.587,149.79,145.345,147.961,146.721,146.583z M146.726,264.43c-1.379-1.378-2.139-3.209-2.139-5.156
	c0-1.947,0.759-3.778,2.14-5.157c1.38-1.379,3.215-2.138,5.169-2.138c1.953,0,3.789,0.759,5.17,2.139
	c1.38,1.379,2.14,3.211,2.14,5.159c0,1.946-0.76,3.777-2.14,5.155c-1.381,1.379-3.216,2.139-5.169,2.139
	C149.944,266.571,148.107,265.81,146.726,264.43z M253.949,254.114c0.001,0,0.001-0.002,0.002-0.002
	c1.38-1.376,3.213-2.133,5.163-2.133c1.953,0,3.788,0.759,5.169,2.139c1.38,1.379,2.14,3.211,2.14,5.159
	c0,1.944-0.758,3.772-2.136,5.149c-0.002,0.003-0.005,0.004-0.008,0.007c-0.002,0.002-0.003,0.005-0.005,0.007
	c-1.38,1.375-3.212,2.131-5.161,2.131c-1.953,0-3.788-0.759-5.17-2.139c-1.379-1.378-2.139-3.21-2.139-5.157
	c0-1.948,0.76-3.779,2.14-5.157C253.945,254.117,253.947,254.116,253.949,254.114z M357.847,146.576
	c1.379,1.378,2.139,3.211,2.139,5.159c0,1.948-0.759,3.779-2.138,5.156c-1.381,1.38-3.217,2.14-5.17,2.14
	c-1.953,0-3.789-0.76-5.171-2.141c-1.379-1.376-2.138-3.206-2.138-5.153c0-1.944,0.757-3.773,2.132-5.151
	c0.004-0.004,0.008-0.006,0.012-0.01c0.003-0.003,0.005-0.007,0.008-0.01c1.38-1.37,3.211-2.127,5.158-2.127
	C354.632,144.439,356.468,145.199,357.847,146.576z M347.51,53.114c1.38-1.379,3.215-2.138,5.168-2.138
	c1.953,0,3.788,0.759,5.169,2.138c1.381,1.38,2.142,3.212,2.142,5.16c0,1.946-0.76,3.777-2.14,5.156
	c-1.381,1.378-3.216,2.138-5.169,2.138c-1.95,0-3.784-0.758-5.165-2.134c-0.001-0.002-0.001-0.002-0.002-0.003
	c-0.002-0.001-0.003-0.003-0.005-0.004c-1.379-1.379-2.139-3.21-2.139-5.158C345.369,56.323,346.129,54.492,347.51,53.114z
	 M264.283,53.114c1.38,1.379,2.14,3.211,2.14,5.159c0,1.946-0.76,3.777-2.141,5.155c-1.381,1.38-3.216,2.14-5.169,2.14
	c-1.953,0-3.788-0.76-5.17-2.14c-1.379-1.378-2.139-3.21-2.139-5.157c0-1.945,0.758-3.773,2.133-5.15
	c0.004-0.005,0.009-0.007,0.013-0.011c0.003-0.003,0.005-0.006,0.007-0.009c1.38-1.369,3.209-2.125,5.157-2.125
	C261.067,50.976,262.902,51.735,264.283,53.114z M146.726,53.114c1.38-1.379,3.216-2.138,5.169-2.138s3.79,0.76,5.169,2.138
	c1.381,1.379,2.141,3.212,2.141,5.16c0,1.946-0.76,3.778-2.14,5.156c-1.38,1.378-3.216,2.138-5.168,2.138
	c-1.951,0-3.785-0.758-5.165-2.134c-0.001-0.002-0.001-0.002-0.002-0.003c-0.001-0.001-0.003-0.003-0.005-0.004
	c-1.379-1.378-2.138-3.21-2.138-5.158C144.587,56.322,145.347,54.492,146.726,53.114z M53.159,63.428
	c-1.379-1.377-2.138-3.208-2.138-5.155c0-1.946,0.759-3.777,2.137-5.155c0.002-0.004,0.006-0.005,0.009-0.008
	c0.001-0.002,0.003-0.004,0.004-0.006c1.379-1.371,3.21-2.128,5.16-2.128c1.953,0,3.789,0.759,5.169,2.138
	c1.38,1.379,2.14,3.211,2.14,5.159c0,1.946-0.759,3.774-2.136,5.153c-0.002,0.002-0.005,0.003-0.007,0.005
	c-0.001,0.001-0.002,0.003-0.003,0.004c-1.38,1.376-3.213,2.133-5.163,2.133C56.376,65.568,54.539,64.808,53.159,63.428z
	 M53.16,146.577c1.38-1.379,3.216-2.138,5.169-2.138c1.954,0,3.79,0.76,5.17,2.138c1.38,1.379,2.14,3.211,2.14,5.159
	c0,1.947-0.759,3.778-2.138,5.155c-1.381,1.38-3.217,2.14-5.17,2.14c-1.952,0-3.786-0.759-5.167-2.136h0c0,0,0,0,0,0
	c-0.001-0.002-0.003-0.003-0.004-0.004c-1.379-1.378-2.139-3.209-2.139-5.157C51.021,149.786,51.781,147.954,53.16,146.577z
	 M53.159,264.432c-1.379-1.377-2.138-3.208-2.138-5.155s0.759-3.778,2.139-5.157c0.002-0.002,0.005-0.004,0.007-0.006
	c0.001-0.001,0.002-0.002,0.003-0.004c1.38-1.375,3.212-2.131,5.161-2.131c1.953,0,3.788,0.759,5.169,2.139
	c1.38,1.379,2.14,3.211,2.14,5.159c0,1.942-0.757,3.769-2.129,5.146c-0.004,0.004-0.009,0.007-0.014,0.011
	c-0.003,0.004-0.006,0.008-0.009,0.012c-1.379,1.371-3.21,2.126-5.157,2.126C56.376,266.571,54.539,265.812,53.159,264.432z
	 M63.501,357.895c-1.381,1.38-3.217,2.139-5.17,2.139c-1.954,0-3.79-0.76-5.171-2.139c-1.38-1.378-2.139-3.21-2.139-5.158
	c0.001-1.947,0.76-3.778,2.141-5.157c1.38-1.379,3.215-2.138,5.168-2.138c1.953,0,3.789,0.759,5.17,2.14
	c1.379,1.377,2.139,3.208,2.139,5.156C65.639,354.686,64.88,356.518,63.501,357.895z M146.725,357.895
	c-1.379-1.377-2.138-3.209-2.138-5.157c0-1.948,0.76-3.779,2.141-5.158c1.38-1.379,3.215-2.138,5.168-2.138
	c1.953,0,3.788,0.759,5.169,2.139c1.379,1.378,2.139,3.208,2.139,5.155c0,1.949-0.759,3.781-2.139,5.159
	c-1.38,1.38-3.216,2.139-5.169,2.139C149.942,360.034,148.106,359.275,146.725,357.895z M264.286,357.895
	c-1.382,1.379-3.219,2.139-5.173,2.139c-1.953,0-3.789-0.759-5.17-2.139c-1.38-1.378-2.14-3.21-2.14-5.159
	c0.001-1.947,0.76-3.777,2.14-5.155c1.381-1.38,3.216-2.139,5.169-2.139c1.953,0,3.788,0.759,5.17,2.14
	c1.38,1.377,2.14,3.208,2.141,5.156C266.423,354.686,265.664,356.518,264.286,357.895z M357.848,347.58
	c1.379,1.377,2.138,3.208,2.138,5.156c0,1.948-0.76,3.781-2.138,5.158c-1.381,1.38-3.217,2.139-5.17,2.139
	c-1.953,0-3.789-0.759-5.171-2.139c-1.379-1.378-2.138-3.209-2.138-5.157c0-1.948,0.76-3.779,2.141-5.157
	c1.381-1.38,3.216-2.139,5.169-2.139S356.467,346.201,357.848,347.58z M357.849,264.432c-1.381,1.379-3.217,2.139-5.17,2.139
	s-3.788-0.76-5.17-2.142c-1.38-1.377-2.14-3.208-2.14-5.155c0-1.947,0.76-3.778,2.142-5.157c1.379-1.379,3.214-2.138,5.167-2.138
	c1.953,0,3.788,0.759,5.169,2.14c1.381,1.378,2.142,3.21,2.142,5.158C359.989,261.223,359.229,263.054,357.849,264.432z"/>
</svg>
